<mxfile host="app.diagrams.net" agent="Mozilla/5.0 (Windows NT 10.0; Win64; x64) AppleWebKit/537.36 (KHTML, like Gecko) Chrome/132.0.0.0 Safari/537.36 Edg/132.0.0.0" version="26.0.8">
  <diagram name="Page-1" id="t3iUDlM8rT8KyTNdJyFb">
    <mxGraphModel dx="1454" dy="1831" grid="1" gridSize="10" guides="1" tooltips="1" connect="1" arrows="1" fold="1" page="1" pageScale="1" pageWidth="850" pageHeight="1100" math="0" shadow="0">
      <root>
        <mxCell id="0" />
        <mxCell id="1" parent="0" />
        <mxCell id="5ge1YkjjSHcOdQZD0iYv-1" value="Product" style="swimlane;fontStyle=1;align=center;verticalAlign=top;childLayout=stackLayout;horizontal=1;startSize=26;horizontalStack=0;resizeParent=1;resizeParentMax=0;resizeLast=0;collapsible=1;marginBottom=0;whiteSpace=wrap;html=1;" vertex="1" parent="1">
          <mxGeometry x="-100" y="-684" width="160" height="134" as="geometry" />
        </mxCell>
        <mxCell id="5ge1YkjjSHcOdQZD0iYv-2" value="name:string&lt;div&gt;id:int&lt;/div&gt;&lt;div&gt;type:ProductType&lt;/div&gt;&lt;div&gt;price:int&lt;/div&gt;" style="text;strokeColor=none;fillColor=none;align=left;verticalAlign=top;spacingLeft=4;spacingRight=4;overflow=hidden;rotatable=0;points=[[0,0.5],[1,0.5]];portConstraint=eastwest;whiteSpace=wrap;html=1;" vertex="1" parent="5ge1YkjjSHcOdQZD0iYv-1">
          <mxGeometry y="26" width="160" height="74" as="geometry" />
        </mxCell>
        <mxCell id="5ge1YkjjSHcOdQZD0iYv-3" value="" style="line;strokeWidth=1;fillColor=none;align=left;verticalAlign=middle;spacingTop=-1;spacingLeft=3;spacingRight=3;rotatable=0;labelPosition=right;points=[];portConstraint=eastwest;strokeColor=inherit;" vertex="1" parent="5ge1YkjjSHcOdQZD0iYv-1">
          <mxGeometry y="100" width="160" height="8" as="geometry" />
        </mxCell>
        <mxCell id="5ge1YkjjSHcOdQZD0iYv-4" value="+ method(type): type" style="text;strokeColor=none;fillColor=none;align=left;verticalAlign=top;spacingLeft=4;spacingRight=4;overflow=hidden;rotatable=0;points=[[0,0.5],[1,0.5]];portConstraint=eastwest;whiteSpace=wrap;html=1;" vertex="1" parent="5ge1YkjjSHcOdQZD0iYv-1">
          <mxGeometry y="108" width="160" height="26" as="geometry" />
        </mxCell>
        <mxCell id="5ge1YkjjSHcOdQZD0iYv-5" value="Slot" style="swimlane;fontStyle=1;align=center;verticalAlign=top;childLayout=stackLayout;horizontal=1;startSize=26;horizontalStack=0;resizeParent=1;resizeParentMax=0;resizeLast=0;collapsible=1;marginBottom=0;whiteSpace=wrap;html=1;" vertex="1" parent="1">
          <mxGeometry x="165" y="-720" width="190" height="160" as="geometry" />
        </mxCell>
        <mxCell id="5ge1YkjjSHcOdQZD0iYv-6" value="products:Product&lt;div&gt;slotId:id&lt;/div&gt;&lt;div&gt;&lt;br&gt;&lt;/div&gt;&lt;div&gt;&amp;nbsp;&lt;/div&gt;" style="text;strokeColor=none;fillColor=none;align=left;verticalAlign=top;spacingLeft=4;spacingRight=4;overflow=hidden;rotatable=0;points=[[0,0.5],[1,0.5]];portConstraint=eastwest;whiteSpace=wrap;html=1;" vertex="1" parent="5ge1YkjjSHcOdQZD0iYv-5">
          <mxGeometry y="26" width="190" height="80" as="geometry" />
        </mxCell>
        <mxCell id="5ge1YkjjSHcOdQZD0iYv-7" value="" style="line;strokeWidth=1;fillColor=none;align=left;verticalAlign=middle;spacingTop=-1;spacingLeft=3;spacingRight=3;rotatable=0;labelPosition=right;points=[];portConstraint=eastwest;strokeColor=inherit;" vertex="1" parent="5ge1YkjjSHcOdQZD0iYv-5">
          <mxGeometry y="106" width="190" height="8" as="geometry" />
        </mxCell>
        <mxCell id="5ge1YkjjSHcOdQZD0iYv-8" value="addProduct(productId,rackId)&lt;div&gt;removeProduct(productId,rackId)&lt;/div&gt;" style="text;strokeColor=none;fillColor=none;align=left;verticalAlign=top;spacingLeft=4;spacingRight=4;overflow=hidden;rotatable=0;points=[[0,0.5],[1,0.5]];portConstraint=eastwest;whiteSpace=wrap;html=1;" vertex="1" parent="5ge1YkjjSHcOdQZD0iYv-5">
          <mxGeometry y="114" width="190" height="46" as="geometry" />
        </mxCell>
        <mxCell id="5ge1YkjjSHcOdQZD0iYv-9" value="Rack" style="swimlane;fontStyle=1;align=center;verticalAlign=top;childLayout=stackLayout;horizontal=1;startSize=26;horizontalStack=0;resizeParent=1;resizeParentMax=0;resizeLast=0;collapsible=1;marginBottom=0;whiteSpace=wrap;html=1;" vertex="1" parent="1">
          <mxGeometry x="40" y="-1020" width="190" height="150" as="geometry" />
        </mxCell>
        <mxCell id="5ge1YkjjSHcOdQZD0iYv-10" value="noOfSlots:int&lt;div&gt;slots:(list)Slots&lt;/div&gt;&lt;div&gt;id:int&lt;/div&gt;" style="text;strokeColor=none;fillColor=none;align=left;verticalAlign=top;spacingLeft=4;spacingRight=4;overflow=hidden;rotatable=0;points=[[0,0.5],[1,0.5]];portConstraint=eastwest;whiteSpace=wrap;html=1;" vertex="1" parent="5ge1YkjjSHcOdQZD0iYv-9">
          <mxGeometry y="26" width="190" height="64" as="geometry" />
        </mxCell>
        <mxCell id="5ge1YkjjSHcOdQZD0iYv-11" value="" style="line;strokeWidth=1;fillColor=none;align=left;verticalAlign=middle;spacingTop=-1;spacingLeft=3;spacingRight=3;rotatable=0;labelPosition=right;points=[];portConstraint=eastwest;strokeColor=inherit;" vertex="1" parent="5ge1YkjjSHcOdQZD0iYv-9">
          <mxGeometry y="90" width="190" height="8" as="geometry" />
        </mxCell>
        <mxCell id="5ge1YkjjSHcOdQZD0iYv-12" value="addProduct(productId,rackId)&lt;div&gt;removeProduct(productId,rackId)&lt;/div&gt;" style="text;strokeColor=none;fillColor=none;align=left;verticalAlign=top;spacingLeft=4;spacingRight=4;overflow=hidden;rotatable=0;points=[[0,0.5],[1,0.5]];portConstraint=eastwest;whiteSpace=wrap;html=1;" vertex="1" parent="5ge1YkjjSHcOdQZD0iYv-9">
          <mxGeometry y="98" width="190" height="52" as="geometry" />
        </mxCell>
        <mxCell id="5ge1YkjjSHcOdQZD0iYv-64" style="edgeStyle=orthogonalEdgeStyle;rounded=0;orthogonalLoop=1;jettySize=auto;html=1;exitX=0.5;exitY=0;exitDx=0;exitDy=0;" edge="1" parent="1" source="5ge1YkjjSHcOdQZD0iYv-13">
          <mxGeometry relative="1" as="geometry">
            <mxPoint x="-59.88235294117635" y="-540" as="targetPoint" />
          </mxGeometry>
        </mxCell>
        <mxCell id="5ge1YkjjSHcOdQZD0iYv-13" value="&amp;lt;&amp;lt;enum&amp;gt;&amp;gt;ProductType" style="swimlane;fontStyle=0;childLayout=stackLayout;horizontal=1;startSize=26;fillColor=none;horizontalStack=0;resizeParent=1;resizeParentMax=0;resizeLast=0;collapsible=1;marginBottom=0;whiteSpace=wrap;html=1;" vertex="1" parent="1">
          <mxGeometry x="-130" y="-490" width="140" height="104" as="geometry" />
        </mxCell>
        <mxCell id="5ge1YkjjSHcOdQZD0iYv-14" value="Chocolate" style="text;strokeColor=none;fillColor=none;align=left;verticalAlign=top;spacingLeft=4;spacingRight=4;overflow=hidden;rotatable=0;points=[[0,0.5],[1,0.5]];portConstraint=eastwest;whiteSpace=wrap;html=1;" vertex="1" parent="5ge1YkjjSHcOdQZD0iYv-13">
          <mxGeometry y="26" width="140" height="26" as="geometry" />
        </mxCell>
        <mxCell id="5ge1YkjjSHcOdQZD0iYv-15" value="Snack" style="text;strokeColor=none;fillColor=none;align=left;verticalAlign=top;spacingLeft=4;spacingRight=4;overflow=hidden;rotatable=0;points=[[0,0.5],[1,0.5]];portConstraint=eastwest;whiteSpace=wrap;html=1;" vertex="1" parent="5ge1YkjjSHcOdQZD0iYv-13">
          <mxGeometry y="52" width="140" height="26" as="geometry" />
        </mxCell>
        <mxCell id="5ge1YkjjSHcOdQZD0iYv-16" value="Other" style="text;strokeColor=none;fillColor=none;align=left;verticalAlign=top;spacingLeft=4;spacingRight=4;overflow=hidden;rotatable=0;points=[[0,0.5],[1,0.5]];portConstraint=eastwest;whiteSpace=wrap;html=1;" vertex="1" parent="5ge1YkjjSHcOdQZD0iYv-13">
          <mxGeometry y="78" width="140" height="26" as="geometry" />
        </mxCell>
        <mxCell id="5ge1YkjjSHcOdQZD0iYv-17" value="&amp;lt;&amp;lt;interface&amp;gt;&amp;gt;IState" style="swimlane;fontStyle=1;align=center;verticalAlign=top;childLayout=stackLayout;horizontal=1;startSize=26;horizontalStack=0;resizeParent=1;resizeParentMax=0;resizeLast=0;collapsible=1;marginBottom=0;whiteSpace=wrap;html=1;" vertex="1" parent="1">
          <mxGeometry x="560" y="-280" width="180" height="190" as="geometry" />
        </mxCell>
        <mxCell id="5ge1YkjjSHcOdQZD0iYv-18" value="+ field: type" style="text;strokeColor=none;fillColor=none;align=left;verticalAlign=top;spacingLeft=4;spacingRight=4;overflow=hidden;rotatable=0;points=[[0,0.5],[1,0.5]];portConstraint=eastwest;whiteSpace=wrap;html=1;" vertex="1" parent="5ge1YkjjSHcOdQZD0iYv-17">
          <mxGeometry y="26" width="180" height="44" as="geometry" />
        </mxCell>
        <mxCell id="5ge1YkjjSHcOdQZD0iYv-19" value="" style="line;strokeWidth=1;fillColor=none;align=left;verticalAlign=middle;spacingTop=-1;spacingLeft=3;spacingRight=3;rotatable=0;labelPosition=right;points=[];portConstraint=eastwest;strokeColor=inherit;" vertex="1" parent="5ge1YkjjSHcOdQZD0iYv-17">
          <mxGeometry y="70" width="180" height="8" as="geometry" />
        </mxCell>
        <mxCell id="5ge1YkjjSHcOdQZD0iYv-20" value="insertMoney():&lt;div&gt;pressButton(slotNumber):&lt;/div&gt;&lt;div&gt;returnChange():&lt;/div&gt;&lt;div&gt;releaseProduct():&lt;/div&gt;&lt;div&gt;showErrorMessage(content):&lt;/div&gt;&lt;div&gt;updateInventory():&lt;/div&gt;&lt;div&gt;&lt;br&gt;&lt;/div&gt;" style="text;strokeColor=none;fillColor=none;align=left;verticalAlign=top;spacingLeft=4;spacingRight=4;overflow=hidden;rotatable=0;points=[[0,0.5],[1,0.5]];portConstraint=eastwest;whiteSpace=wrap;html=1;" vertex="1" parent="5ge1YkjjSHcOdQZD0iYv-17">
          <mxGeometry y="78" width="180" height="112" as="geometry" />
        </mxCell>
        <mxCell id="5ge1YkjjSHcOdQZD0iYv-21" value="Admin" style="swimlane;fontStyle=1;align=center;verticalAlign=top;childLayout=stackLayout;horizontal=1;startSize=26;horizontalStack=0;resizeParent=1;resizeParentMax=0;resizeLast=0;collapsible=1;marginBottom=0;whiteSpace=wrap;html=1;" vertex="1" parent="1">
          <mxGeometry x="280" y="-480" width="160" height="210" as="geometry" />
        </mxCell>
        <mxCell id="5ge1YkjjSHcOdQZD0iYv-22" value="adminKey:string&lt;div&gt;id:int&lt;/div&gt;&lt;div&gt;name:string&lt;/div&gt;&lt;div&gt;pwd:string&lt;/div&gt;&lt;div&gt;&lt;br&gt;&lt;/div&gt;" style="text;strokeColor=none;fillColor=none;align=left;verticalAlign=top;spacingLeft=4;spacingRight=4;overflow=hidden;rotatable=0;points=[[0,0.5],[1,0.5]];portConstraint=eastwest;whiteSpace=wrap;html=1;" vertex="1" parent="5ge1YkjjSHcOdQZD0iYv-21">
          <mxGeometry y="26" width="160" height="92" as="geometry" />
        </mxCell>
        <mxCell id="5ge1YkjjSHcOdQZD0iYv-23" value="" style="line;strokeWidth=1;fillColor=none;align=left;verticalAlign=middle;spacingTop=-1;spacingLeft=3;spacingRight=3;rotatable=0;labelPosition=right;points=[];portConstraint=eastwest;strokeColor=inherit;" vertex="1" parent="5ge1YkjjSHcOdQZD0iYv-21">
          <mxGeometry y="118" width="160" height="8" as="geometry" />
        </mxCell>
        <mxCell id="5ge1YkjjSHcOdQZD0iYv-24" value="login():&lt;div&gt;logout():&lt;/div&gt;&lt;div&gt;addProduct()&quot;&lt;/div&gt;&lt;div&gt;removeProduct():&lt;/div&gt;&lt;div&gt;collectCash():&lt;/div&gt;" style="text;strokeColor=none;fillColor=none;align=left;verticalAlign=top;spacingLeft=4;spacingRight=4;overflow=hidden;rotatable=0;points=[[0,0.5],[1,0.5]];portConstraint=eastwest;whiteSpace=wrap;html=1;" vertex="1" parent="5ge1YkjjSHcOdQZD0iYv-21">
          <mxGeometry y="126" width="160" height="84" as="geometry" />
        </mxCell>
        <mxCell id="5ge1YkjjSHcOdQZD0iYv-25" value="Notofication" style="swimlane;fontStyle=1;align=center;verticalAlign=top;childLayout=stackLayout;horizontal=1;startSize=26;horizontalStack=0;resizeParent=1;resizeParentMax=0;resizeLast=0;collapsible=1;marginBottom=0;whiteSpace=wrap;html=1;" vertex="1" parent="1">
          <mxGeometry x="880" y="-600" width="160" height="134" as="geometry" />
        </mxCell>
        <mxCell id="5ge1YkjjSHcOdQZD0iYv-26" value="contentString:string&lt;div&gt;id:int&lt;/div&gt;&lt;div&gt;time:date/time&lt;/div&gt;&lt;div&gt;type: NotificationType&lt;/div&gt;" style="text;strokeColor=none;fillColor=none;align=left;verticalAlign=top;spacingLeft=4;spacingRight=4;overflow=hidden;rotatable=0;points=[[0,0.5],[1,0.5]];portConstraint=eastwest;whiteSpace=wrap;html=1;" vertex="1" parent="5ge1YkjjSHcOdQZD0iYv-25">
          <mxGeometry y="26" width="160" height="74" as="geometry" />
        </mxCell>
        <mxCell id="5ge1YkjjSHcOdQZD0iYv-27" value="" style="line;strokeWidth=1;fillColor=none;align=left;verticalAlign=middle;spacingTop=-1;spacingLeft=3;spacingRight=3;rotatable=0;labelPosition=right;points=[];portConstraint=eastwest;strokeColor=inherit;" vertex="1" parent="5ge1YkjjSHcOdQZD0iYv-25">
          <mxGeometry y="100" width="160" height="8" as="geometry" />
        </mxCell>
        <mxCell id="5ge1YkjjSHcOdQZD0iYv-28" value="+ method(type): type" style="text;strokeColor=none;fillColor=none;align=left;verticalAlign=top;spacingLeft=4;spacingRight=4;overflow=hidden;rotatable=0;points=[[0,0.5],[1,0.5]];portConstraint=eastwest;whiteSpace=wrap;html=1;" vertex="1" parent="5ge1YkjjSHcOdQZD0iYv-25">
          <mxGeometry y="108" width="160" height="26" as="geometry" />
        </mxCell>
        <mxCell id="5ge1YkjjSHcOdQZD0iYv-63" style="edgeStyle=orthogonalEdgeStyle;rounded=0;orthogonalLoop=1;jettySize=auto;html=1;exitX=0.5;exitY=0;exitDx=0;exitDy=0;" edge="1" parent="1" source="5ge1YkjjSHcOdQZD0iYv-29">
          <mxGeometry relative="1" as="geometry">
            <mxPoint x="989.5294117647059" y="-460" as="targetPoint" />
          </mxGeometry>
        </mxCell>
        <mxCell id="5ge1YkjjSHcOdQZD0iYv-29" value="&amp;lt;&amp;lt;enum&amp;gt;&amp;gt;NotificationType" style="swimlane;fontStyle=0;childLayout=stackLayout;horizontal=1;startSize=26;fillColor=none;horizontalStack=0;resizeParent=1;resizeParentMax=0;resizeLast=0;collapsible=1;marginBottom=0;whiteSpace=wrap;html=1;" vertex="1" parent="1">
          <mxGeometry x="910" y="-410" width="160" height="104" as="geometry" />
        </mxCell>
        <mxCell id="5ge1YkjjSHcOdQZD0iYv-30" value="Formal" style="text;strokeColor=none;fillColor=none;align=left;verticalAlign=top;spacingLeft=4;spacingRight=4;overflow=hidden;rotatable=0;points=[[0,0.5],[1,0.5]];portConstraint=eastwest;whiteSpace=wrap;html=1;" vertex="1" parent="5ge1YkjjSHcOdQZD0iYv-29">
          <mxGeometry y="26" width="160" height="26" as="geometry" />
        </mxCell>
        <mxCell id="5ge1YkjjSHcOdQZD0iYv-31" value="Error" style="text;strokeColor=none;fillColor=none;align=left;verticalAlign=top;spacingLeft=4;spacingRight=4;overflow=hidden;rotatable=0;points=[[0,0.5],[1,0.5]];portConstraint=eastwest;whiteSpace=wrap;html=1;" vertex="1" parent="5ge1YkjjSHcOdQZD0iYv-29">
          <mxGeometry y="52" width="160" height="26" as="geometry" />
        </mxCell>
        <mxCell id="5ge1YkjjSHcOdQZD0iYv-32" value="Thankyou" style="text;strokeColor=none;fillColor=none;align=left;verticalAlign=top;spacingLeft=4;spacingRight=4;overflow=hidden;rotatable=0;points=[[0,0.5],[1,0.5]];portConstraint=eastwest;whiteSpace=wrap;html=1;" vertex="1" parent="5ge1YkjjSHcOdQZD0iYv-29">
          <mxGeometry y="78" width="160" height="26" as="geometry" />
        </mxCell>
        <mxCell id="5ge1YkjjSHcOdQZD0iYv-33" value="VendingMachine" style="swimlane;fontStyle=1;align=center;verticalAlign=top;childLayout=stackLayout;horizontal=1;startSize=26;horizontalStack=0;resizeParent=1;resizeParentMax=0;resizeLast=0;collapsible=1;marginBottom=0;whiteSpace=wrap;html=1;" vertex="1" parent="1">
          <mxGeometry x="550" y="-730" width="200" height="290" as="geometry" />
        </mxCell>
        <mxCell id="5ge1YkjjSHcOdQZD0iYv-34" value="state:State&lt;div&gt;id:int&lt;/div&gt;&lt;div&gt;rakes:(list)Rake&lt;/div&gt;&lt;div&gt;overAllMoney:int&lt;/div&gt;&lt;div&gt;oprerators:(list)Admin&lt;/div&gt;&lt;div&gt;productList:(list)Product&lt;/div&gt;" style="text;strokeColor=none;fillColor=none;align=left;verticalAlign=top;spacingLeft=4;spacingRight=4;overflow=hidden;rotatable=0;points=[[0,0.5],[1,0.5]];portConstraint=eastwest;whiteSpace=wrap;html=1;" vertex="1" parent="5ge1YkjjSHcOdQZD0iYv-33">
          <mxGeometry y="26" width="200" height="114" as="geometry" />
        </mxCell>
        <mxCell id="5ge1YkjjSHcOdQZD0iYv-35" value="" style="line;strokeWidth=1;fillColor=none;align=left;verticalAlign=middle;spacingTop=-1;spacingLeft=3;spacingRight=3;rotatable=0;labelPosition=right;points=[];portConstraint=eastwest;strokeColor=inherit;" vertex="1" parent="5ge1YkjjSHcOdQZD0iYv-33">
          <mxGeometry y="140" width="200" height="8" as="geometry" />
        </mxCell>
        <mxCell id="5ge1YkjjSHcOdQZD0iYv-36" value="insertAmmount():&lt;div&gt;selectProduct():&lt;/div&gt;&lt;div&gt;returnChange():&lt;/div&gt;&lt;div&gt;releaseProduct():&lt;/div&gt;&lt;div&gt;showErrorMessage():&lt;/div&gt;&lt;div&gt;updateInverntory(slotNum):&lt;/div&gt;&lt;div&gt;addAdmin():&lt;/div&gt;&lt;div&gt;removeAdmin():&lt;/div&gt;&lt;div&gt;searchProduct():&lt;/div&gt;" style="text;strokeColor=none;fillColor=none;align=left;verticalAlign=top;spacingLeft=4;spacingRight=4;overflow=hidden;rotatable=0;points=[[0,0.5],[1,0.5]];portConstraint=eastwest;whiteSpace=wrap;html=1;" vertex="1" parent="5ge1YkjjSHcOdQZD0iYv-33">
          <mxGeometry y="148" width="200" height="142" as="geometry" />
        </mxCell>
        <mxCell id="5ge1YkjjSHcOdQZD0iYv-37" value="NoMoneyInsertState" style="swimlane;fontStyle=1;align=center;verticalAlign=top;childLayout=stackLayout;horizontal=1;startSize=26;horizontalStack=0;resizeParent=1;resizeParentMax=0;resizeLast=0;collapsible=1;marginBottom=0;whiteSpace=wrap;html=1;" vertex="1" parent="1">
          <mxGeometry x="380" width="160" height="86" as="geometry" />
        </mxCell>
        <mxCell id="5ge1YkjjSHcOdQZD0iYv-38" value="+ field: type" style="text;strokeColor=none;fillColor=none;align=left;verticalAlign=top;spacingLeft=4;spacingRight=4;overflow=hidden;rotatable=0;points=[[0,0.5],[1,0.5]];portConstraint=eastwest;whiteSpace=wrap;html=1;" vertex="1" parent="5ge1YkjjSHcOdQZD0iYv-37">
          <mxGeometry y="26" width="160" height="26" as="geometry" />
        </mxCell>
        <mxCell id="5ge1YkjjSHcOdQZD0iYv-39" value="" style="line;strokeWidth=1;fillColor=none;align=left;verticalAlign=middle;spacingTop=-1;spacingLeft=3;spacingRight=3;rotatable=0;labelPosition=right;points=[];portConstraint=eastwest;strokeColor=inherit;" vertex="1" parent="5ge1YkjjSHcOdQZD0iYv-37">
          <mxGeometry y="52" width="160" height="8" as="geometry" />
        </mxCell>
        <mxCell id="5ge1YkjjSHcOdQZD0iYv-40" value="+ method(type): type" style="text;strokeColor=none;fillColor=none;align=left;verticalAlign=top;spacingLeft=4;spacingRight=4;overflow=hidden;rotatable=0;points=[[0,0.5],[1,0.5]];portConstraint=eastwest;whiteSpace=wrap;html=1;" vertex="1" parent="5ge1YkjjSHcOdQZD0iYv-37">
          <mxGeometry y="60" width="160" height="26" as="geometry" />
        </mxCell>
        <mxCell id="5ge1YkjjSHcOdQZD0iYv-41" value="MoneyInsertState" style="swimlane;fontStyle=1;align=center;verticalAlign=top;childLayout=stackLayout;horizontal=1;startSize=26;horizontalStack=0;resizeParent=1;resizeParentMax=0;resizeLast=0;collapsible=1;marginBottom=0;whiteSpace=wrap;html=1;" vertex="1" parent="1">
          <mxGeometry x="580" width="160" height="86" as="geometry" />
        </mxCell>
        <mxCell id="5ge1YkjjSHcOdQZD0iYv-42" value="+ field: type" style="text;strokeColor=none;fillColor=none;align=left;verticalAlign=top;spacingLeft=4;spacingRight=4;overflow=hidden;rotatable=0;points=[[0,0.5],[1,0.5]];portConstraint=eastwest;whiteSpace=wrap;html=1;" vertex="1" parent="5ge1YkjjSHcOdQZD0iYv-41">
          <mxGeometry y="26" width="160" height="26" as="geometry" />
        </mxCell>
        <mxCell id="5ge1YkjjSHcOdQZD0iYv-43" value="" style="line;strokeWidth=1;fillColor=none;align=left;verticalAlign=middle;spacingTop=-1;spacingLeft=3;spacingRight=3;rotatable=0;labelPosition=right;points=[];portConstraint=eastwest;strokeColor=inherit;" vertex="1" parent="5ge1YkjjSHcOdQZD0iYv-41">
          <mxGeometry y="52" width="160" height="8" as="geometry" />
        </mxCell>
        <mxCell id="5ge1YkjjSHcOdQZD0iYv-44" value="+ method(type): type" style="text;strokeColor=none;fillColor=none;align=left;verticalAlign=top;spacingLeft=4;spacingRight=4;overflow=hidden;rotatable=0;points=[[0,0.5],[1,0.5]];portConstraint=eastwest;whiteSpace=wrap;html=1;" vertex="1" parent="5ge1YkjjSHcOdQZD0iYv-41">
          <mxGeometry y="60" width="160" height="26" as="geometry" />
        </mxCell>
        <mxCell id="5ge1YkjjSHcOdQZD0iYv-45" value="DispenseState" style="swimlane;fontStyle=1;align=center;verticalAlign=top;childLayout=stackLayout;horizontal=1;startSize=26;horizontalStack=0;resizeParent=1;resizeParentMax=0;resizeLast=0;collapsible=1;marginBottom=0;whiteSpace=wrap;html=1;" vertex="1" parent="1">
          <mxGeometry x="790" width="160" height="86" as="geometry" />
        </mxCell>
        <mxCell id="5ge1YkjjSHcOdQZD0iYv-46" value="+ field: type" style="text;strokeColor=none;fillColor=none;align=left;verticalAlign=top;spacingLeft=4;spacingRight=4;overflow=hidden;rotatable=0;points=[[0,0.5],[1,0.5]];portConstraint=eastwest;whiteSpace=wrap;html=1;" vertex="1" parent="5ge1YkjjSHcOdQZD0iYv-45">
          <mxGeometry y="26" width="160" height="26" as="geometry" />
        </mxCell>
        <mxCell id="5ge1YkjjSHcOdQZD0iYv-47" value="" style="line;strokeWidth=1;fillColor=none;align=left;verticalAlign=middle;spacingTop=-1;spacingLeft=3;spacingRight=3;rotatable=0;labelPosition=right;points=[];portConstraint=eastwest;strokeColor=inherit;" vertex="1" parent="5ge1YkjjSHcOdQZD0iYv-45">
          <mxGeometry y="52" width="160" height="8" as="geometry" />
        </mxCell>
        <mxCell id="5ge1YkjjSHcOdQZD0iYv-48" value="+ method(type): type" style="text;strokeColor=none;fillColor=none;align=left;verticalAlign=top;spacingLeft=4;spacingRight=4;overflow=hidden;rotatable=0;points=[[0,0.5],[1,0.5]];portConstraint=eastwest;whiteSpace=wrap;html=1;" vertex="1" parent="5ge1YkjjSHcOdQZD0iYv-45">
          <mxGeometry y="60" width="160" height="26" as="geometry" />
        </mxCell>
        <mxCell id="5ge1YkjjSHcOdQZD0iYv-49" value="" style="endArrow=block;dashed=1;endFill=0;endSize=12;html=1;rounded=0;entryX=0.568;entryY=1.011;entryDx=0;entryDy=0;entryPerimeter=0;" edge="1" parent="1">
          <mxGeometry width="160" relative="1" as="geometry">
            <mxPoint x="649.72" y="-41.23" as="sourcePoint" />
            <mxPoint x="649.96" y="-89.99800000000003" as="targetPoint" />
          </mxGeometry>
        </mxCell>
        <mxCell id="5ge1YkjjSHcOdQZD0iYv-51" value="" style="endArrow=none;html=1;rounded=0;" edge="1" parent="1">
          <mxGeometry width="50" height="50" relative="1" as="geometry">
            <mxPoint x="440" y="-40" as="sourcePoint" />
            <mxPoint x="880" y="-40" as="targetPoint" />
          </mxGeometry>
        </mxCell>
        <mxCell id="5ge1YkjjSHcOdQZD0iYv-52" value="" style="endArrow=none;html=1;rounded=0;exitX=0.438;exitY=0;exitDx=0;exitDy=0;exitPerimeter=0;" edge="1" parent="1" source="5ge1YkjjSHcOdQZD0iYv-41">
          <mxGeometry width="50" height="50" relative="1" as="geometry">
            <mxPoint x="600" y="10" as="sourcePoint" />
            <mxPoint x="650" y="-40" as="targetPoint" />
          </mxGeometry>
        </mxCell>
        <mxCell id="5ge1YkjjSHcOdQZD0iYv-53" value="" style="endArrow=none;html=1;rounded=0;" edge="1" parent="1">
          <mxGeometry width="50" height="50" relative="1" as="geometry">
            <mxPoint x="440" as="sourcePoint" />
            <mxPoint x="440" y="-40" as="targetPoint" />
          </mxGeometry>
        </mxCell>
        <mxCell id="5ge1YkjjSHcOdQZD0iYv-54" value="" style="endArrow=none;html=1;rounded=0;exitX=0.563;exitY=0;exitDx=0;exitDy=0;exitPerimeter=0;" edge="1" parent="1" source="5ge1YkjjSHcOdQZD0iYv-45">
          <mxGeometry width="50" height="50" relative="1" as="geometry">
            <mxPoint x="830" y="10" as="sourcePoint" />
            <mxPoint x="880" y="-40" as="targetPoint" />
          </mxGeometry>
        </mxCell>
        <mxCell id="5ge1YkjjSHcOdQZD0iYv-55" value="" style="endArrow=diamondThin;endFill=0;endSize=24;html=1;rounded=0;exitX=0.444;exitY=0;exitDx=0;exitDy=0;exitPerimeter=0;entryX=0.45;entryY=1.02;entryDx=0;entryDy=0;entryPerimeter=0;" edge="1" parent="1" source="5ge1YkjjSHcOdQZD0iYv-17" target="5ge1YkjjSHcOdQZD0iYv-36">
          <mxGeometry width="160" relative="1" as="geometry">
            <mxPoint x="480" y="-430" as="sourcePoint" />
            <mxPoint x="640" y="-430" as="targetPoint" />
          </mxGeometry>
        </mxCell>
        <mxCell id="5ge1YkjjSHcOdQZD0iYv-57" value="" style="endArrow=open;endFill=1;endSize=12;html=1;rounded=0;exitX=0.688;exitY=0;exitDx=0;exitDy=0;exitPerimeter=0;" edge="1" parent="1" source="5ge1YkjjSHcOdQZD0iYv-1">
          <mxGeometry width="160" relative="1" as="geometry">
            <mxPoint x="-90" y="210" as="sourcePoint" />
            <mxPoint x="220" y="-720" as="targetPoint" />
            <Array as="points">
              <mxPoint x="10" y="-800" />
              <mxPoint x="220" y="-800" />
            </Array>
          </mxGeometry>
        </mxCell>
        <mxCell id="5ge1YkjjSHcOdQZD0iYv-58" value="" style="endArrow=diamondThin;endFill=1;endSize=24;html=1;rounded=0;exitX=1.007;exitY=0.436;exitDx=0;exitDy=0;exitPerimeter=0;" edge="1" parent="1" source="5ge1YkjjSHcOdQZD0iYv-6">
          <mxGeometry width="160" relative="1" as="geometry">
            <mxPoint x="360" y="-660" as="sourcePoint" />
            <mxPoint x="550" y="-660" as="targetPoint" />
          </mxGeometry>
        </mxCell>
        <mxCell id="5ge1YkjjSHcOdQZD0iYv-59" value="" style="endArrow=open;endFill=1;endSize=12;html=1;rounded=0;exitX=0.002;exitY=0.426;exitDx=0;exitDy=0;exitPerimeter=0;entryX=1.011;entryY=0.289;entryDx=0;entryDy=0;entryPerimeter=0;" edge="1" parent="1" source="5ge1YkjjSHcOdQZD0iYv-26" target="5ge1YkjjSHcOdQZD0iYv-36">
          <mxGeometry width="160" relative="1" as="geometry">
            <mxPoint x="600" y="-540" as="sourcePoint" />
            <mxPoint x="760" y="-540" as="targetPoint" />
            <Array as="points">
              <mxPoint x="880" y="-540" />
            </Array>
          </mxGeometry>
        </mxCell>
        <mxCell id="5ge1YkjjSHcOdQZD0iYv-60" value="" style="endArrow=diamondThin;endFill=1;endSize=24;html=1;rounded=0;exitX=0.379;exitY=-0.005;exitDx=0;exitDy=0;exitPerimeter=0;" edge="1" parent="1" source="5ge1YkjjSHcOdQZD0iYv-1">
          <mxGeometry width="160" relative="1" as="geometry">
            <mxPoint x="-40" y="-690" as="sourcePoint" />
            <mxPoint x="40" y="-940" as="targetPoint" />
            <Array as="points">
              <mxPoint x="-40" y="-940" />
            </Array>
          </mxGeometry>
        </mxCell>
        <mxCell id="5ge1YkjjSHcOdQZD0iYv-61" value="" style="endArrow=open;endFill=1;endSize=12;html=1;rounded=0;exitX=1;exitY=0.5;exitDx=0;exitDy=0;entryX=0.606;entryY=-0.022;entryDx=0;entryDy=0;entryPerimeter=0;" edge="1" parent="1" source="5ge1YkjjSHcOdQZD0iYv-10" target="5ge1YkjjSHcOdQZD0iYv-5">
          <mxGeometry width="160" relative="1" as="geometry">
            <mxPoint x="280" y="-950" as="sourcePoint" />
            <mxPoint x="280" y="-730" as="targetPoint" />
            <Array as="points">
              <mxPoint x="280" y="-962" />
            </Array>
          </mxGeometry>
        </mxCell>
        <mxCell id="5ge1YkjjSHcOdQZD0iYv-62" value="" style="endArrow=diamondThin;endFill=1;endSize=24;html=1;rounded=0;exitX=1.002;exitY=0.479;exitDx=0;exitDy=0;exitPerimeter=0;" edge="1" parent="1" source="5ge1YkjjSHcOdQZD0iYv-22">
          <mxGeometry width="160" relative="1" as="geometry">
            <mxPoint x="420" y="-470" as="sourcePoint" />
            <mxPoint x="550" y="-467" as="targetPoint" />
            <Array as="points">
              <mxPoint x="510" y="-410" />
              <mxPoint x="510" y="-467" />
            </Array>
          </mxGeometry>
        </mxCell>
      </root>
    </mxGraphModel>
  </diagram>
</mxfile>
